<svg width="32" height="32" viewBox="0 0 32 32" fill="none" xmlns="http://www.w3.org/2000/svg" role="none" aria-hidden="true"><path d="M10.713 13.719A3.005 3.005 0 0 0 8 12H4a3 3 0 0 0-3 3v5h2v7h6" stroke="currentColor" stroke-width="2" stroke-miterlimit="10"></path><path d="M6 9a3 3 0 1 0 0-6 3 3 0 0 0 0 6Z" stroke="currentColor" stroke-width="2" stroke-miterlimit="10" stroke-linecap="square"></path><path d="M21.287 13.719A3.005 3.005 0 0 1 24 12h4a3 3 0 0 1 3 3v5h-2v7h-6" stroke="currentColor" stroke-width="2" stroke-miterlimit="10"></path><path d="M26 9a3 3 0 1 0 0-6 3 3 0 0 0 0 6Zm-7 22h-6v-8h-3v-7a4 4 0 0 1 4-4h4a4 4 0 0 1 4 4v7h-3v8ZM16 9a4 4 0 1 0 0-8 4 4 0 0 0 0 8Z" stroke="currentColor" stroke-width="2" stroke-miterlimit="10" stroke-linecap="square"></path></svg>